<?xml version="1.0" standalone="no"?>
<!DOCTYPE svg PUBLIC "-//W3C//DTD SVG 20010904//EN"
 "http://www.w3.org/TR/2001/REC-SVG-20010904/DTD/svg10.dtd">
<svg version="1.0" xmlns="http://www.w3.org/2000/svg"
 width="678.000000pt" height="678.000000pt" viewBox="0 0 678.000000 678.000000"
 preserveAspectRatio="xMidYMid meet">
<metadata>
Created by potrace 1.14, written by Peter Selinger 2001-2017
</metadata>
<g transform="translate(0.000000,678.000000) scale(0.100000,-0.100000)"
fill="#000000" stroke="none">
<path d="M3258 6566 c-54 -31 -72 -63 -73 -128 0 -32 -3 -58 -7 -58 -5 0 -8
-7 -8 -15 0 -8 -7 -15 -15 -15 -8 0 -15 -5 -15 -11 0 -6 -16 -26 -35 -45 -20
-19 -34 -38 -31 -43 3 -4 -6 -13 -20 -20 -14 -6 -22 -16 -19 -21 3 -6 1 -10
-4 -10 -6 0 -11 -6 -11 -13 0 -7 -11 -21 -25 -31 -14 -10 -25 -23 -25 -29 0
-5 -16 -24 -34 -42 -19 -18 -32 -35 -29 -39 3 -3 -6 -15 -21 -27 -15 -12 -25
-24 -22 -27 3 -3 -3 -12 -15 -20 -13 -9 -18 -20 -14 -30 3 -9 3 -13 -1 -10 -6
7 -23 -8 -59 -51 -12 -15 -14 -21 -5 -16 8 5 5 -2 -7 -16 -41 -44 -65 -74 -81
-101 -9 -16 -20 -28 -24 -28 -4 0 -8 -5 -8 -10 0 -6 -9 -20 -20 -32 -11 -12
-20 -28 -20 -35 0 -7 -6 -13 -14 -13 -8 0 -16 -10 -20 -22 -3 -13 -19 -38 -36
-55 -17 -18 -27 -33 -23 -33 4 -1 -2 -9 -15 -20 -13 -10 -23 -20 -23 -22 1
-14 -13 -47 -18 -44 -3 2 -12 -2 -19 -10 -7 -8 -10 -14 -6 -14 4 0 -1 -9 -11
-20 -10 -11 -14 -20 -9 -20 5 0 -2 -7 -14 -16 -12 -8 -20 -19 -17 -24 3 -5 -3
-13 -12 -19 -10 -6 -14 -11 -10 -11 5 0 2 -7 -5 -15 -28 -31 -43 -50 -44 -55
-3 -19 -18 -39 -25 -34 -5 3 -9 2 -8 -3 4 -17 -20 -60 -37 -67 -9 -4 -14 -9
-10 -13 3 -3 -1 -15 -11 -25 -9 -10 -12 -18 -7 -18 5 0 -2 -7 -14 -16 -12 -8
-20 -19 -17 -24 3 -5 -3 -15 -14 -21 -11 -7 -17 -19 -13 -27 3 -10 1 -13 -6
-8 -7 4 -12 1 -12 -8 0 -9 -7 -24 -15 -33 -8 -10 -15 -21 -15 -26 0 -4 -8 -16
-18 -27 -10 -11 -25 -33 -33 -48 -7 -15 -21 -38 -31 -51 -10 -13 -15 -27 -12
-32 3 -5 -2 -9 -10 -9 -9 0 -15 -3 -14 -7 4 -16 -35 -83 -45 -76 -5 3 -7 1 -3
-5 3 -6 -1 -18 -10 -26 -8 -9 -12 -16 -7 -16 4 0 3 -4 -3 -8 -5 -4 -18 -24
-27 -44 -10 -21 -22 -38 -28 -38 -6 0 -7 -4 -4 -10 3 -5 2 -10 -3 -10 -8 0
-14 -13 -22 -48 -1 -4 -8 -11 -16 -15 -8 -5 -12 -12 -9 -18 4 -5 1 -9 -5 -9
-6 0 -9 -4 -6 -9 3 -5 -1 -14 -9 -21 -8 -7 -15 -19 -15 -27 0 -8 -5 -11 -12
-7 -7 4 -8 3 -4 -5 4 -6 -2 -25 -14 -41 -12 -17 -18 -30 -13 -30 4 0 3 -4 -3
-8 -6 -4 -18 -20 -26 -37 -63 -123 -84 -160 -90 -163 -5 -2 -8 -12 -8 -22 0
-9 -7 -23 -15 -30 -9 -7 -13 -15 -11 -18 3 -2 -3 -16 -14 -30 -11 -13 -17 -28
-14 -33 3 -5 0 -9 -7 -9 -7 0 -9 -3 -6 -6 4 -4 -4 -21 -16 -38 -12 -17 -21
-32 -20 -33 5 -6 -20 -63 -28 -63 -5 0 -9 -9 -9 -19 0 -11 -5 -23 -10 -26 -6
-4 -8 -11 -5 -16 4 -5 1 -9 -4 -9 -6 0 -10 -3 -9 -7 1 -9 -13 -46 -21 -53 -3
-3 -13 -25 -21 -50 -9 -25 -21 -44 -28 -43 -6 2 -9 -3 -6 -10 3 -8 0 -27 -6
-43 -6 -16 -11 -30 -10 -32 0 -1 -5 -9 -12 -16 -10 -10 -15 -11 -21 -2 -4 6
-6 -5 -5 -24 2 -36 -21 -110 -33 -110 -5 0 -6 -9 -4 -20 2 -11 0 -20 -6 -20
-5 0 -9 -9 -9 -20 0 -11 -5 -20 -11 -20 -5 0 -7 -5 -4 -10 4 -6 2 -17 -5 -24
-6 -8 -13 -25 -16 -37 -7 -33 -9 -40 -23 -72 -6 -16 -9 -32 -6 -37 3 -4 -2
-11 -11 -14 -9 -4 -14 -9 -11 -12 3 -3 -1 -23 -8 -44 -7 -21 -11 -41 -8 -44 4
-3 1 -6 -5 -6 -7 0 -11 -3 -10 -7 1 -5 -6 -20 -15 -35 -15 -21 -16 -31 -7 -47
6 -12 7 -21 2 -21 -5 0 -9 -6 -10 -12 -1 -17 -7 -39 -17 -61 -4 -10 -5 -21 -1
-24 3 -3 1 -12 -5 -20 -6 -7 -13 -25 -14 -40 -2 -16 -8 -40 -14 -55 -8 -21 -8
-28 2 -28 8 0 7 -4 -3 -10 -8 -5 -12 -10 -8 -10 4 0 3 -12 -4 -27 -6 -16 -12
-44 -13 -63 -2 -19 -4 -35 -5 -35 -3 0 -10 -40 -15 -95 -11 -114 -13 -125 -15
-125 -1 0 -4 -43 -5 -95 -3 -121 -3 -120 -16 -120 -10 0 -39 -24 -39 -33 0 -3
9 -3 21 0 29 8 34 -5 34 -89 0 -40 4 -76 10 -80 7 -5 6 -14 -3 -28 -6 -11 -12
-27 -12 -35 0 -8 -5 -15 -11 -15 -5 0 -7 5 -3 12 5 7 3 8 -5 4 -7 -5 -10 -10
-7 -13 3 -4 -4 -14 -16 -24 -11 -11 -16 -19 -10 -19 6 0 23 11 38 25 24 23 52
26 39 4 -4 -5 -2 -9 2 -9 5 0 8 -14 7 -30 -1 -17 5 -37 13 -45 8 -8 11 -15 6
-15 -5 0 -9 -11 -9 -25 0 -14 6 -25 14 -25 7 0 10 -5 7 -10 -3 -6 -3 -16 2
-23 8 -12 12 -28 15 -59 1 -9 6 -14 10 -12 7 4 10 -18 7 -42 0 -4 4 -10 9 -13
6 -3 12 -13 14 -21 2 -8 10 -21 18 -28 8 -8 9 -11 3 -7 -9 4 -11 1 -7 -9 3 -9
10 -16 14 -16 8 0 23 -38 21 -52 -1 -5 4 -8 10 -8 5 0 7 -4 4 -10 -3 -5 1 -10
10 -10 9 0 13 -4 10 -10 -3 -5 -1 -10 5 -10 6 0 8 -4 5 -10 -3 -5 -2 -10 3
-10 5 0 9 -10 8 -23 0 -12 4 -21 11 -20 7 2 21 -9 30 -25 10 -15 28 -37 40
-50 13 -13 23 -27 23 -32 0 -6 7 -10 15 -10 8 0 15 -6 15 -14 0 -8 9 -18 20
-21 11 -4 18 -11 15 -16 -4 -5 0 -9 7 -9 7 0 19 -9 26 -20 7 -12 17 -18 22
-15 6 3 10 0 10 -8 0 -7 11 -19 25 -25 14 -6 25 -16 25 -22 0 -5 7 -10 16 -10
8 0 12 -4 9 -10 -3 -5 0 -8 7 -5 7 3 24 -5 38 -18 14 -13 39 -30 57 -37 19 -9
31 -21 30 -30 -4 -21 -30 -60 -40 -60 -13 0 -37 -27 -30 -34 4 -3 -3 -6 -15
-6 -11 0 -24 -5 -27 -10 -4 -6 -11 -8 -16 -5 -5 3 -6 -2 -2 -11 5 -14 2 -16
-20 -12 -15 3 -25 1 -24 -6 2 -10 -4 -12 -38 -15 -8 0 -15 -5 -15 -9 0 -5 7
-9 15 -9 8 0 15 4 15 9 0 4 3 7 8 6 14 -4 72 21 72 31 0 6 6 11 14 11 8 0 30
14 48 30 18 17 37 30 42 30 5 0 6 3 3 6 -3 4 5 16 19 27 l25 20 60 -31 c33
-17 56 -25 52 -19 -3 7 2 5 13 -4 25 -21 61 -36 99 -41 11 -2 23 -7 26 -11 3
-5 12 -9 20 -11 8 -1 22 -7 33 -12 14 -9 16 -15 8 -31 -7 -12 -7 -25 -1 -34 6
-10 9 -11 9 -1 0 8 5 10 13 6 9 -6 9 -5 -1 8 -27 34 47 45 96 15 6 -5 16 -6
21 -2 5 3 15 0 23 -7 7 -7 24 -14 38 -14 34 -2 63 -8 78 -17 7 -5 12 -3 12 4
0 8 4 8 13 2 6 -6 19 -10 27 -11 8 0 42 -4 75 -10 33 -5 65 -7 72 -5 7 3 13 1
13 -5 0 -6 17 -9 38 -8 20 2 45 -1 56 -7 13 -7 16 -6 11 3 -6 9 -2 9 14 1 14
-8 21 -8 21 -1 0 8 6 8 20 0 14 -8 20 -8 20 0 0 6 5 8 12 4 17 -10 68 -11 68
0 0 5 7 3 15 -4 11 -9 15 -9 15 -1 0 9 5 9 20 1 11 -6 20 -7 20 -3 0 5 17 9
38 10 20 1 46 4 57 6 11 2 40 7 65 11 58 9 84 14 90 16 3 1 9 2 14 1 4 -1 14
4 22 10 8 6 14 8 14 5 0 -4 9 -2 21 4 11 6 30 14 42 16 12 3 27 6 32 7 6 2 16
6 23 10 6 5 12 5 12 0 0 -4 5 -1 10 8 8 14 38 18 81 10 13 -2 74 -64 72 -73
-2 -4 1 -8 5 -8 4 0 14 -17 21 -38 14 -36 27 -52 45 -52 6 0 3 6 -6 13 -9 6
-18 23 -20 37 -2 20 1 24 17 22 11 -2 27 -10 36 -18 8 -8 21 -14 27 -14 7 0
12 -5 12 -11 0 -6 7 -9 15 -5 8 3 15 2 15 -2 0 -11 59 -34 86 -35 13 0 26 -7
29 -17 3 -10 14 -16 28 -15 12 1 32 -5 45 -13 12 -8 22 -11 22 -8 0 4 8 2 18
-3 17 -9 81 -23 115 -24 9 -1 17 -4 17 -7 0 -4 16 -6 35 -5 19 1 32 -1 30 -6
-3 -4 20 -9 51 -11 31 -1 58 0 61 5 2 4 12 4 21 -1 20 -9 134 -8 150 2 6 3 13
2 17 -4 4 -6 10 -8 14 -5 5 2 39 5 77 7 72 2 77 -1 59 -45 -6 -13 -3 -16 9
-11 9 3 16 10 16 15 0 17 63 69 84 69 11 0 35 2 53 4 19 2 41 -3 55 -12 26
-19 51 -25 42 -11 -3 5 -10 7 -15 4 -5 -4 -8 4 -6 16 4 23 13 27 79 36 23 3
35 9 31 16 -3 6 -1 7 5 3 6 -4 21 -2 33 5 12 6 36 13 53 16 17 3 36 9 43 14 7
6 12 6 15 -1 2 -6 12 -3 25 9 11 11 23 18 25 15 3 -2 18 2 34 11 16 8 35 15
42 15 7 0 11 4 8 9 -4 5 3 7 14 4 12 -3 20 0 20 6 0 7 5 9 10 6 6 -3 13 1 16
9 3 9 10 13 15 10 6 -3 21 2 35 11 13 9 29 13 35 10 5 -4 8 -1 7 7 -2 7 3 12
10 11 6 -2 12 2 12 7 0 6 6 10 14 10 7 0 19 6 25 14 14 16 57 15 54 -2 -2 -7
3 -12 11 -12 9 0 12 8 8 26 -3 19 2 32 22 50 14 14 26 22 26 18 0 -4 14 9 31
27 17 19 27 27 23 19 -5 -8 26 19 67 60 42 41 75 77 73 80 -4 9 24 29 32 22 4
-4 4 -1 0 6 -4 7 -1 15 8 18 9 3 13 10 10 15 -3 5 1 12 10 15 8 3 17 12 20 20
4 10 2 13 -7 8 -6 -5 3 7 21 25 17 18 32 38 32 45 0 7 9 23 20 36 11 12 17 27
14 31 -3 5 0 9 5 9 6 0 10 3 9 8 -1 4 3 17 10 30 7 12 10 28 6 34 -4 6 -3 8 4
4 6 -3 13 3 17 14 7 20 25 28 25 10 0 -5 8 -10 17 -10 9 0 13 -3 10 -7 -4 -3
7 -19 23 -35 17 -15 30 -32 30 -36 0 -4 8 -15 18 -24 24 -23 36 -41 40 -58 2
-8 7 -17 11 -20 4 -3 11 -17 15 -32 6 -26 26 -40 26 -18 0 6 -4 10 -10 10 -5
0 -9 3 -8 8 4 11 -35 92 -44 92 -4 0 -8 7 -8 15 0 8 -7 15 -15 15 -8 0 -14 3
-13 8 3 15 -15 42 -28 42 -12 0 -18 11 -16 31 1 3 -10 12 -23 19 -24 13 -39
62 -23 78 9 9 17 39 22 82 2 14 6 32 10 40 7 19 17 68 21 100 1 14 7 36 12 50
6 14 7 26 2 28 -5 2 -6 8 -3 14 12 19 12 68 0 68 -7 0 -8 3 -1 8 14 9 16 35
16 142 0 129 -4 170 -15 170 -7 0 -8 3 -1 8 14 10 15 52 2 52 -8 0 -7 4 0 11
11 11 10 18 -4 59 -3 8 -7 31 -8 50 -2 19 -6 51 -10 70 -4 19 -8 51 -9 70 -2
19 -4 35 -5 35 -4 0 -13 50 -15 77 0 16 -4 28 -8 28 -5 0 -8 13 -8 28 0 15 -5
33 -12 40 -9 9 -9 12 3 12 12 1 12 2 -1 9 -9 6 -15 23 -15 43 1 18 -4 36 -9
40 -5 3 -11 15 -12 25 -3 21 -12 57 -14 61 -6 6 -22 85 -20 96 1 5 -2 12 -7
15 -14 9 -44 112 -36 124 4 6 1 7 -7 2 -10 -6 -12 -4 -7 8 3 9 1 18 -6 21 -7
3 2 4 18 3 28 -2 92 -37 70 -37 -6 0 13 -12 40 -25 28 -14 47 -25 43 -25 -5 0
8 -17 27 -37 19 -20 38 -33 42 -29 5 4 0 13 -9 20 -10 7 -17 15 -15 17 1 2 0
3 -1 2 -2 -1 -17 12 -33 28 -15 16 -35 29 -43 29 -8 0 -16 3 -18 8 -7 16 -70
62 -79 56 -5 -3 -9 -1 -9 3 0 5 -14 17 -31 27 -22 13 -29 24 -26 37 3 11 1 17
-4 13 -5 -3 -9 1 -9 9 0 7 -9 31 -19 53 -11 21 -17 42 -14 46 2 5 0 8 -6 8 -6
0 -8 7 -5 15 4 8 1 15 -5 15 -6 0 -11 8 -11 18 0 10 -4 22 -8 27 -5 6 -15 29
-22 53 -7 23 -16 42 -19 42 -4 0 -7 10 -8 22 -1 12 -10 26 -19 31 -12 7 -13
11 -4 17 8 5 7 11 -4 23 -9 8 -16 20 -16 26 0 6 -4 19 -9 29 -5 9 -16 32 -23
50 -7 17 -16 32 -21 32 -4 0 -7 6 -6 13 3 20 -12 47 -24 40 -6 -3 -7 -1 -3 5
4 6 1 22 -6 34 -7 13 -11 26 -10 31 1 4 -3 7 -8 7 -6 0 -10 9 -10 20 0 11 -5
20 -11 20 -6 0 -8 7 -5 15 3 9 -1 18 -9 21 -8 4 -15 15 -15 25 0 10 -4 19 -10
19 -5 0 -7 7 -4 15 4 8 -1 17 -10 21 -9 3 -14 10 -11 14 3 4 -2 13 -10 20 -8
7 -15 21 -15 31 0 11 -3 19 -7 19 -9 0 -33 48 -33 65 0 6 -8 20 -18 31 -19 20
-22 26 -22 45 0 5 -5 7 -12 3 -8 -5 -9 -2 -5 9 4 10 0 20 -9 25 -9 5 -15 11
-14 13 3 7 -34 83 -47 97 -7 7 -13 20 -13 28 0 8 -5 14 -11 14 -5 0 -8 4 -5 9
3 5 -1 14 -9 21 -8 7 -12 16 -9 21 3 5 -2 9 -10 9 -10 0 -13 6 -10 15 4 8 1
15 -7 15 -7 0 -10 3 -6 6 3 3 -3 16 -14 28 -11 11 -18 28 -16 38 3 10 0 15 -7
12 -7 -3 -12 6 -14 21 -1 15 4 28 13 31 8 4 15 11 15 17 0 8 -3 8 -11 0 -11
-11 -62 -5 -54 7 3 4 -2 10 -10 14 -9 3 -12 12 -8 22 4 12 3 15 -5 10 -7 -4
-12 -1 -12 8 0 9 -4 16 -9 16 -5 0 -11 13 -14 29 -4 18 -14 32 -27 36 -18 6
-19 9 -8 23 7 9 8 13 2 9 -6 -3 -21 12 -34 36 -30 53 -63 101 -73 105 -4 2 -5
8 -1 13 3 5 1 9 -4 9 -5 0 -12 8 -16 18 -8 24 -27 52 -64 97 -7 8 -10 15 -7
15 4 0 0 7 -8 15 -8 8 -25 31 -38 52 -13 21 -28 41 -33 45 -6 4 -7 8 -2 8 6 0
1 7 -10 15 -10 8 -16 15 -11 15 4 0 -1 9 -10 19 -27 29 -36 43 -52 74 -8 15
-18 27 -23 27 -4 0 -8 5 -8 10 0 6 -9 20 -20 32 -11 12 -20 28 -20 35 0 8 -4
11 -10 8 -9 -6 -14 8 -11 28 0 4 -6 7 -15 7 -8 0 -12 5 -9 10 3 6 1 10 -6 10
-7 0 -10 3 -7 6 3 3 -4 16 -16 29 -35 38 -45 53 -58 80 -6 14 -18 25 -25 25
-8 0 -12 4 -9 9 3 5 -9 24 -27 43 -18 19 -31 41 -29 48 3 7 0 10 -7 6 -6 -4
-11 0 -11 9 0 9 -4 13 -10 10 -5 -3 -10 0 -10 8 0 8 -13 28 -30 45 -16 18 -30
36 -30 42 0 5 -9 15 -20 22 -11 7 -20 17 -20 21 0 5 -6 14 -12 22 -7 7 -29 32
-48 56 -19 23 -45 53 -58 66 -13 13 -20 23 -17 23 3 0 -12 18 -34 40 -22 22
-37 40 -34 40 3 0 -4 8 -15 19 -12 10 -22 24 -22 30 0 7 -4 9 -10 6 -5 -3 -10
1 -10 10 0 9 -4 13 -10 10 -5 -3 -10 1 -10 9 0 9 -5 16 -11 16 -5 0 -7 5 -3
12 4 6 3 8 -3 5 -6 -4 -18 5 -27 18 -9 14 -21 23 -27 20 -5 -4 -9 -3 -8 2 3
19 -2 34 -9 29 -10 -6 -43 30 -35 38 4 3 0 6 -9 6 -8 0 -27 16 -42 35 -16 19
-33 32 -40 28 -6 -3 -8 -3 -4 1 7 8 -35 56 -49 56 -5 0 -15 9 -23 20 -8 11
-19 20 -26 20 -14 0 -38 45 -32 62 3 7 -2 20 -10 28 -14 13 -15 12 -10 -2 4
-10 1 -19 -8 -22 -9 -3 -12 -1 -9 4 3 6 -3 11 -14 11 -22 2 -39 5 -43 9 -12 9
-63 2 -90 -14z"/>
<path d="M1080 3478 c0 -9 -2 -9 73 -12 37 -1 57 2 57 9 0 7 -23 11 -65 11
-36 0 -65 -3 -65 -8z"/>
<path d="M1226 3463 c-6 -14 -5 -15 5 -6 7 7 10 15 7 18 -3 3 -9 -2 -12 -12z"/>
<path d="M1250 3464 c0 -8 5 -12 10 -9 6 4 8 11 5 16 -9 14 -15 11 -15 -7z"/>
<path d="M1278 3443 c7 -3 16 -2 19 1 4 3 -2 6 -13 5 -11 0 -14 -3 -6 -6z"/>
<path d="M903 1651 c-3 -14 -12 -33 -20 -42 -14 -17 -25 -52 -25 -82 1 -9 -3
-15 -7 -12 -12 7 -20 -30 -10 -46 7 -11 9 -11 10 -1 3 27 4 31 12 38 4 4 7 18
7 30 0 13 5 26 10 29 6 3 10 15 10 26 0 11 6 22 14 25 8 3 12 12 9 20 -3 7 2
17 11 20 20 8 21 21 1 21 -9 0 -18 -12 -22 -26z"/>
<path d="M6033 981 c0 -11 4 -18 8 -15 13 7 18 -23 6 -36 -9 -10 -9 -11 2 -5
11 6 13 3 9 -13 -4 -12 -2 -22 3 -22 5 0 9 -25 9 -55 0 -42 4 -55 15 -55 8 0
12 6 10 13 -3 6 -7 30 -9 52 -2 22 -5 40 -6 40 -3 0 -11 41 -11 57 0 9 -7 22
-15 28 -7 7 -11 16 -8 21 3 5 1 9 -5 9 -5 0 -9 -9 -8 -19z"/>
<path d="M6070 766 c0 -2 7 -7 16 -10 8 -3 12 -2 9 4 -6 10 -25 14 -25 6z"/>
<path d="M1305 610 c-7 -12 -7 -12 23 -15 23 -2 30 9 12 20 -5 3 -10 1 -10 -4
0 -6 -5 -11 -11 -11 -5 0 -7 5 -4 10 3 6 4 10 1 10 -3 0 -8 -4 -11 -10z"/>
<path d="M1367 604 c4 -12 53 -7 53 6 0 4 -13 7 -29 6 -16 -1 -27 -6 -24 -12z"/>
<path d="M5374 609 c-3 -6 0 -15 7 -20 8 -5 10 -9 5 -9 -5 0 -3 -7 4 -15 7 -8
10 -21 7 -29 -3 -7 -2 -17 3 -22 5 -5 10 -26 12 -47 1 -20 6 -37 11 -37 5 0 4
-7 -3 -15 -9 -11 -10 -18 -1 -28 6 -8 8 -17 4 -21 -4 -4 -8 -19 -9 -34 -1 -15
-2 -27 -4 -27 -1 0 -3 -12 -4 -27 -3 -34 11 -37 19 -5 10 37 11 108 3 113 -4
3 -8 10 -8 15 0 6 4 8 9 4 10 -6 8 17 -5 49 -5 13 -4 17 3 13 13 -8 4 35 -8
43 -5 3 -9 21 -11 39 -1 18 -6 35 -10 37 -5 3 -6 9 -3 14 3 5 1 11 -4 14 -5 4
-13 1 -17 -5z"/>
<path d="M1996 561 c-3 -5 1 -11 9 -14 9 -4 12 -1 8 9 -6 16 -10 17 -17 5z"/>
<path d="M2006 522 c-2 -4 -1 -14 4 -22 7 -11 9 -9 7 8 -1 24 -3 26 -11 14z"/>
<path d="M4423 292 c-6 -10 -25 -26 -43 -34 -18 -9 -27 -18 -22 -22 6 -3 17 1
25 9 9 8 20 15 25 15 14 0 35 27 30 40 -2 6 -8 2 -15 -8z"/>
<path d="M5394 223 c2 -10 -3 -24 -11 -31 -7 -8 -10 -18 -7 -24 3 -5 12 3 20
17 16 31 18 55 5 55 -5 0 -8 -8 -7 -17z"/>
<path d="M5353 132 c-6 -11 -8 -24 -3 -31 5 -9 10 -10 14 -2 4 6 1 11 -6 11
-7 0 -2 9 12 20 17 13 20 20 10 20 -8 0 -20 -8 -27 -18z"/>
</g>
</svg>
